# File created by Blade
# Date/Time:  Tue Apr 07 21:36:59 2015
# Frame Rate: 120.000 fps
#------------------------------------------------------
:FULLY-SPECIFIED
:DEGREES
654
root -5.851974 32.455162 12.566397 255.901430 -90.555645 -233.919923
Spine -4.950755 -3.185117 0.611728
Head 5.046428 -3.368500 -3.381238
LeftShoulder -24.247707 43.823491 12.986831
LeftArm 54.914056 -49.996254 -74.263886
LeftForeArm -4.070685 -0.000000 9.652228
LeftHand 16.084067 -0.000000 24.341667
LeftHandThumb1 -26.253704 0.000000 33.147579
RightShoulder -6.931349 -0.505891 -28.279729
RightArm 6.296280 19.023052 50.977595
RightForeArm -3.262175 -0.000000 13.244607
RightHand 13.827309 0.000000 -17.231693
RightHandThumb1 -24.326973 -0.000000 -32.862282
LeftUpLeg -38.575009 -9.668822 4.184038
LeftLeg 27.954383 -0.000000 -0.000000
LeftFoot -10.479213 7.694186 -18.130025
LeftToeBase -17.823771 -0.000000 0.000000
RightUpLeg -34.654610 3.049197 0.316309
RightLeg 39.235373 -0.000000 -0.000000
RightFoot -15.263621 -9.609060 11.542776
RightToeBase -13.844318 -0.000000 0.000000
655
root -5.808172 32.360304 12.615615 312.981796 -90.208341 -291.156986
Spine -4.829906 -3.066974 0.335306
Head 4.545827 -3.230089 -3.529385
LeftShoulder -24.287830 43.731412 13.152088
LeftArm 55.826926 -50.809104 -74.916401
LeftForeArm -3.833317 -0.000000 9.968991
LeftHand 16.284758 -0.000000 24.506347
LeftHandThumb1 -26.253704 0.000000 33.147579
RightShoulder -6.886423 -0.336911 -28.412662
RightArm 6.362590 18.966148 50.401242
RightForeArm -3.546015 -0.000000 13.481551
RightHand 13.527693 -0.000000 -17.025013
RightHandThumb1 -24.326973 -0.000000 -32.862282
LeftUpLeg -38.766648 -9.827067 3.854931
LeftLeg 28.624028 -0.000000 -0.000000
LeftFoot -11.338879 7.932032 -18.103865
LeftToeBase -17.303658 -0.000000 0.000000
RightUpLeg -35.248501 2.564263 0.140221
RightLeg 40.438336 -0.000000 -0.000000
RightFoot -15.819071 -9.290714 11.314598
RightToeBase -13.349720 -0.000000 0.000000
656
root -5.763311 32.276007 12.660035 378.904988 -90.478535 -357.256268
Spine -4.715853 -2.926383 0.139303
Head 4.114362 -3.015206 -3.675182
LeftShoulder -24.317535 43.783085 13.342283
LeftArm 56.720290 -51.394922 -75.569574
LeftForeArm -3.632700 -0.000000 10.258950
LeftHand 16.090406 -0.000000 24.934593
LeftHandThumb1 -26.253704 0.000000 33.147579
RightShoulder -6.778773 -0.320391 -28.537846
RightArm 6.548900 19.110572 49.992665
RightForeArm -3.900022 -0.000000 13.653652
RightHand 13.408795 -0.000000 -16.967035
RightHandThumb1 -24.326973 -0.000000 -32.862282
LeftUpLeg -38.835592 -9.949128 3.603111
LeftLeg 29.113891 -0.000000 -0.000000
LeftFoot -12.230999 8.193211 -18.110651
LeftToeBase -16.801681 -0.000000 0.000000
RightUpLeg -35.680788 2.445018 -0.048113
RightLeg 41.343614 -0.000000 -0.000000
RightFoot -16.424282 -9.218770 11.230394
RightToeBase -12.767643 -0.000000 0.000000
657
root -5.718709 32.203171 12.695867 389.376830 -90.889003 -367.953306
Spine -4.517472 -2.800557 -0.043840
Head 3.667708 -2.889615 -3.824044
LeftShoulder -24.506413 43.821360 13.431980
LeftArm 57.758136 -51.788386 -76.224894
LeftForeArm -3.533118 -0.000000 10.243410
LeftHand 16.413477 0.000000 24.876750
LeftHandThumb1 -26.253704 0.000000 33.147579
RightShoulder -6.726163 -0.286297 -28.691704
RightArm 6.847032 19.191305 49.777188
RightForeArm -4.147478 -0.000000 13.698943
RightHand 13.471357 -0.000000 -16.857990
RightHandThumb1 -24.326973 -0.000000 -32.862282
LeftUpLeg -38.756991 -10.030265 3.349611
LeftLeg 29.429241 -0.000000 -0.000000
LeftFoot -13.128677 8.505539 -18.101313
LeftToeBase -16.442586 -0.000000 0.000000
RightUpLeg -35.956446 2.503062 -0.238280
RightLeg 42.059821 -0.000000 -0.000000
RightFoot -17.036772 -9.276242 11.272631
RightToeBase -12.291180 -0.000000 0.000000
658
root -5.677023 32.142380 12.722826 393.587117 -91.286851 -372.399569
Spine -4.318513 -2.709352 -0.227782
Head 3.331136 -2.857875 -3.975911
LeftShoulder -24.669191 43.806614 13.513012
LeftArm 58.554620 -52.056776 -76.623977
LeftForeArm -3.502241 -0.000000 10.096548
LeftHand 16.825124 -0.000000 24.362089
LeftHandThumb1 -26.253704 0.000000 33.147579
RightShoulder -6.672683 -0.192324 -28.873371
RightArm 7.127339 19.342951 49.720588
RightForeArm -4.425725 -0.000000 13.703287
RightHand 13.538613 -0.000000 -17.001744
RightHandThumb1 -24.326973 -0.000000 -32.862282
LeftUpLeg -38.529483 -10.202655 3.144492
LeftLeg 29.480366 -0.000000 -0.000000
LeftFoot -14.074424 8.806938 -18.231870
LeftToeBase -15.925697 -0.000000 0.000000
RightUpLeg -36.104539 2.617719 -0.430083
RightLeg 42.598963 -0.000000 -0.000000
RightFoot -17.613112 -9.418740 11.321258
RightToeBase -11.803763 -0.000000 0.000000
659
root -5.643314 32.089987 12.737434 395.369635 -91.582539 -374.453712
Spine -4.118468 -2.659708 -0.362851
Head 3.037341 -2.770237 -4.133537
LeftShoulder -24.799369 43.768992 13.599441
LeftArm 59.214864 -52.118584 -76.757808
LeftForeArm -3.507805 -0.000000 9.858943
LeftHand 16.829281 -0.000000 24.180327
LeftHandThumb1 -26.253704 0.000000 33.147579
RightShoulder -6.647564 -0.106341 -29.053148
RightArm 7.416958 19.495675 49.797072
RightForeArm -4.677718 -0.000000 13.677521
RightHand 13.680446 -0.000000 -16.908844
RightHandThumb1 -24.326973 -0.000000 -32.862282
LeftUpLeg -38.260938 -10.179978 2.906712
LeftLeg 29.582640 -0.000000 -0.000000
LeftFoot -14.891731 8.754631 -18.140434
LeftToeBase -15.293372 -0.000000 0.000000
RightUpLeg -36.117246 2.707703 -0.548572
RightLeg 43.006300 -0.000000 -0.000000
RightFoot -18.248662 -9.590199 11.412604
RightToeBase -11.188040 -0.000000 0.000000
660
root -5.620738 32.046834 12.744948 396.992113 -91.799594 -376.342668
Spine -3.965851 -2.682190 -0.475218
Head 2.838654 -2.649907 -4.284586
LeftShoulder -24.709657 43.641724 13.824954
LeftArm 59.640929 -52.277613 -76.898059
LeftForeArm -3.263504 -0.000000 9.794995
LeftHand 17.413168 -0.000000 21.740097
LeftHandThumb1 -26.253704 0.000000 33.147579
RightShoulder -6.589542 -0.012722 -29.191123
RightArm 7.666970 19.577214 49.911681
RightForeArm -4.848024 -0.000000 13.649713
RightHand 13.802041 -0.000000 -16.777082
RightHandThumb1 -24.326973 -0.000000 -32.862282
LeftUpLeg -37.957864 -10.189276 2.729136
LeftLeg 29.642616 -0.000000 -0.000000
LeftFoot -15.611739 8.438617 -18.100443
LeftToeBase -14.469917 -0.000000 0.000000
RightUpLeg -36.028197 2.819960 -0.642214
RightLeg 43.267033 -0.000000 -0.000000
RightFoot -18.900186 -9.843307 11.520379
RightToeBase -10.529221 -0.000000 0.000000
661
root -5.607084 32.010896 12.741651 396.058704 -91.885106 -375.631695
Spine -3.893109 -2.708728 -0.449010
Head 2.713471 -2.522311 -4.439022
LeftShoulder -24.617316 43.572179 14.033778
LeftArm 59.872833 -52.199957 -76.748597
LeftForeArm -3.488651 -0.000000 9.572976
LeftHand 17.029940 -0.000000 22.208611
LeftHandThumb1 -26.253704 0.000000 33.147579
RightShoulder -6.574819 0.076768 -29.296497
RightArm 7.855606 19.506559 50.019625
RightForeArm -4.844030 -0.000000 13.688064
RightHand 13.751214 0.000000 -16.565733
RightHandThumb1 -24.326973 -0.000000 -32.862282
LeftUpLeg -37.824807 -10.083780 2.665265
LeftLeg 29.958679 -0.000000 -0.000000
LeftFoot -16.120619 7.923146 -17.998140
LeftToeBase -14.275201 -0.000000 0.000000
RightUpLeg -35.843293 3.055572 -0.625655
RightLeg 43.310296 -0.000000 -0.000000
RightFoot -19.493372 -10.253670 11.585960
RightToeBase -9.650983 -0.000000 0.000000
662
root -5.598563 31.982203 12.744685 398.179079 -91.945165 -377.950734
Spine -3.878483 -2.819269 -0.489642
Head 2.676707 -2.397622 -4.606041
LeftShoulder -24.506336 43.559601 14.217553
LeftArm 60.092667 -52.133347 -76.650393
LeftForeArm -3.502147 -0.000000 9.470332
LeftHand 16.665008 0.000000 21.674313
LeftHandThumb1 -26.253704 0.000000 33.147579
RightShoulder -6.527392 0.149636 -29.362679
RightArm 8.022606 19.389471 50.111678
RightForeArm -4.845668 -0.000000 13.705360
RightHand 13.625975 -0.000000 -16.451853
RightHandThumb1 -24.326973 -0.000000 -32.862282
LeftUpLeg -37.737881 -10.138625 2.590029
LeftLeg 30.268352 -0.000000 -0.000000
LeftFoot -16.488114 7.376988 -18.105315
LeftToeBase -13.755686 -0.000000 0.000000
RightUpLeg -35.683740 3.090567 -0.662154
RightLeg 43.386845 -0.000000 -0.000000
RightFoot -19.933073 -10.451154 11.619835
RightToeBase -9.185672 -0.000000 0.000000
663
root -5.584467 31.965563 12.742174 398.866735 -91.972870 -378.764448
Spine -3.944307 -2.891417 -0.471330
Head 2.666020 -2.338345 -4.760194
LeftShoulder -24.330861 43.516071 14.414466
LeftArm 60.175274 -52.023114 -76.441141
LeftForeArm -3.394547 -0.000000 9.397101
LeftHand 16.224201 -0.000000 21.144152
LeftHandThumb1 -26.253704 0.000000 33.147579
RightShoulder -6.525694 0.232028 -29.417144
RightArm 8.251756 19.475736 50.314006
RightForeArm -4.998273 -0.000000 13.621419
RightHand 13.813160 -0.000000 -15.920480
RightHandThumb1 -24.326973 -0.000000 -32.862282
LeftUpLeg -37.764540 -10.163335 2.596431
LeftLeg 30.591926 -0.000000 -0.000000
LeftFoot -16.674037 6.874849 -18.222387
LeftToeBase -12.994416 -0.000000 0.000000
RightUpLeg -35.458569 3.301181 -0.680957
RightLeg 43.205796 -0.000000 -0.000000
RightFoot -20.317265 -10.811093 11.679519
RightToeBase -8.822846 -0.000000 0.000000
